# xmcd
#
# Track frame offsets: 
#        150
#        14375
#        26606
#        38987
#        52358
#        66712
#        78312
#        92482
#        104500
#        119178
#        134756
#        149418
#
# Disc length: 2183 seconds
#
# Revision: 0
# Processed by: cddbd v1.5.2PL0 Copyright (c) Steve Scherf et al.
# Submitted via: ExactAudioCopy v0.99pb3
#
DISCID=bd08850c
DTITLE=SOTHRIA MPELLOY - H SOTHRIA MPELLOY
DYEAR=2007
DGENRE=Retro
TTITLE0=SE FILIES DEN PISTEYW
TTITLE1=8A KANW PERASMA KRYFO
TTITLE2=EIMAI ENA PALIOPAIDO
TTITLE3=TA KALA PAIDIA
TTITLE4=PANTA PERIPLANWMENOS
TTITLE5=FYGE GIATI ME TYRANNAS
TTITLE6=GIA MENA TO KALO PAIDI
TTITLE7=STA KAPHLEIA GYRIZW
TTITLE8=TO 3ERO MOY TO KEFALI
TTITLE9=BGHKA MIKROS STHN 3ENHTIA
TTITLE10=TI SOY LEEI H MANA SOY GIA MENA
TTITLE11=KAHMOS MES STHN KARDOYLA MOY
EXTD=
EXTT0=
EXTT1=
EXTT2=
EXTT3=
EXTT4=
EXTT5=
EXTT6=
EXTT7=
EXTT8=
EXTT9=
EXTT10=
EXTT11=
PLAYORDER=
